<svg width="36" height="36" viewBox="0 0 36 36" fill="none" xmlns="http://www.w3.org/2000/svg">
<mask id="path-1-inside-1" fill="white">
<path d="M3 9C3 8.20435 3.31607 7.44129 3.87868 6.87868C4.44129 6.31607 5.20435 6 6 6H30C30.7956 6 31.5587 6.31607 32.1213 6.87868C32.6839 7.44129 33 8.20435 33 9V27C33 27.7956 32.6839 28.5587 32.1213 29.1213C31.5587 29.6839 30.7956 30 30 30H6C5.20435 30 4.44129 29.6839 3.87868 29.1213C3.31607 28.5587 3 27.7956 3 27V9ZM8.2785 9L18 17.5065L27.7215 9H8.28H8.2785ZM30 10.9935L18.9885 20.6295C18.715 20.8692 18.3637 21.0013 18 21.0013C17.6363 21.0013 17.285 20.8692 17.0115 20.6295L6 10.9935V27H30V10.9935Z"/>
</mask>
<path d="M6 6L6 -4L6 6ZM30 6V-4V6ZM3 27L-7 27L3 27ZM8.2785 9V-1H-18.3356L1.69337 16.5257L8.2785 9ZM18 17.5065L11.4149 25.0322L18 30.7943L24.5851 25.0322L18 17.5065ZM27.7215 9L34.3066 16.5257L54.3356 -1H27.7215V9ZM30 10.9935H40V-11.0456L23.4146 3.46805L30 10.9935ZM18.9885 20.6295L12.4031 13.104L12.3985 13.1081L18.9885 20.6295ZM18 21.0013V31.0013V21.0013ZM17.0115 20.6295L23.6015 13.1081L23.5969 13.1041L17.0115 20.6295ZM6 10.9935L12.5854 3.46805L-4 -11.0456L-4 10.9935H6ZM6 27H-4V37H6V27ZM30 27V37H40V27H30ZM13 9C13 10.8565 12.2625 12.637 10.9497 13.9497L-3.19239 -0.192388C-5.63036 2.24559 -7 5.55219 -7 9L13 9ZM10.9497 13.9497C9.63699 15.2625 7.85651 16 6 16L6 -4C2.55219 -4 -0.754414 -2.63036 -3.19239 -0.192388L10.9497 13.9497ZM6 16H30V-4H6V16ZM30 16C28.1435 16 26.363 15.2625 25.0503 13.9497L39.1924 -0.192388C36.7544 -2.63036 33.4478 -4 30 -4L30 16ZM25.0503 13.9497C23.7375 12.637 23 10.8565 23 9H43C43 5.55217 41.6304 2.24558 39.1924 -0.192388L25.0503 13.9497ZM23 9V27H43V9H23ZM23 27C23 25.1435 23.7375 23.363 25.0503 22.0503L39.1924 36.1924C41.6303 33.7544 43 30.4478 43 27H23ZM25.0503 22.0503C26.363 20.7375 28.1435 20 30 20V40C33.4478 40 36.7544 38.6303 39.1924 36.1924L25.0503 22.0503ZM30 20H6V40H30V20ZM6 20C7.85653 20 9.637 20.7375 10.9497 22.0503L-3.19239 36.1924C-0.754424 38.6304 2.55217 40 6 40V20ZM10.9497 22.0503C12.2625 23.363 13 25.1435 13 27L-7 27C-7 30.4478 -5.63036 33.7544 -3.19239 36.1924L10.9497 22.0503ZM13 27V9H-7V27H13ZM1.69337 16.5257L11.4149 25.0322L24.5851 9.9808L14.8636 1.4743L1.69337 16.5257ZM24.5851 25.0322L34.3066 16.5257L21.1364 1.4743L11.4149 9.9808L24.5851 25.0322ZM27.7215 -1H8.28V19H27.7215V-1ZM8.28 -1H8.2785V19H8.28V-1ZM23.4146 3.46805L12.4031 13.1041L25.5739 28.1549L36.5854 18.5189L23.4146 3.46805ZM12.3985 13.1081C13.9485 11.75 15.9392 11.0013 18 11.0013V31.0013C20.7882 31.0013 23.4814 29.9883 25.5785 28.1509L12.3985 13.1081ZM18 11.0013C20.0608 11.0013 22.0515 11.75 23.6015 13.1081L10.4215 28.1509C12.5186 29.9883 15.2118 31.0013 18 31.0013L18 11.0013ZM23.5969 13.1041L12.5854 3.46805L-0.585409 18.5189L10.4261 28.1549L23.5969 13.1041ZM-4 10.9935V27H16V10.9935H-4ZM6 37H30V17H6V37ZM40 27V10.9935H20V27H40Z" fill="white" mask="url(#path-1-inside-1)"/>
</svg>
