<svg width="513" height="513" viewBox="0 0 513 513" fill="none" xmlns="http://www.w3.org/2000/svg">
<mask id="path-1-inside-1" fill="white">
<path fill-rule="evenodd" clip-rule="evenodd" d="M166.216 360.323C158.273 360.323 151.082 365.024 147.896 372.301L115.964 445.219C110.178 458.434 119.859 473.242 134.285 473.242H386.059C400.485 473.242 410.166 458.434 404.379 445.219L372.448 372.301C369.261 365.024 362.071 360.323 354.127 360.323H166.216Z"/>
</mask>
<path fill-rule="evenodd" clip-rule="evenodd" d="M166.216 360.323C158.273 360.323 151.082 365.024 147.896 372.301L115.964 445.219C110.178 458.434 119.859 473.242 134.285 473.242H386.059C400.485 473.242 410.166 458.434 404.379 445.219L372.448 372.301C369.261 365.024 362.071 360.323 354.127 360.323H166.216Z" fill="#9FCCCC"/>
<path d="M404.379 445.219L386.059 453.242L404.379 445.219ZM147.896 372.301L129.575 364.278L147.896 372.301ZM134.285 453.242L166.216 380.323L129.575 364.278L97.644 437.197L134.285 453.242ZM386.059 453.242H134.285V493.242H386.059V453.242ZM354.127 380.323L386.059 453.242L422.7 437.197L390.768 364.278L354.127 380.323ZM354.127 340.323H166.216V380.323H354.127V340.323ZM390.768 364.278C384.395 349.725 370.014 340.323 354.127 340.323V380.323L354.127 380.323L390.768 364.278ZM386.059 493.242C414.91 493.242 434.273 463.626 422.7 437.197L386.059 453.242C386.068 453.263 386.074 453.279 386.078 453.291C386.083 453.302 386.085 453.31 386.086 453.314C386.087 453.317 386.087 453.318 386.087 453.317C386.086 453.315 386.086 453.311 386.085 453.305C386.083 453.294 386.081 453.278 386.081 453.261C386.08 453.244 386.081 453.228 386.082 453.215C386.085 453.189 386.089 453.18 386.086 453.189C386.085 453.193 386.082 453.2 386.077 453.21C386.072 453.22 386.066 453.231 386.059 453.242C386.051 453.253 386.044 453.263 386.037 453.271C386.03 453.28 386.024 453.285 386.021 453.288C386.015 453.294 386.021 453.287 386.044 453.274C386.055 453.268 386.069 453.261 386.085 453.255C386.101 453.248 386.116 453.243 386.127 453.24C386.133 453.239 386.137 453.238 386.138 453.238C386.14 453.237 386.139 453.238 386.135 453.238C386.131 453.239 386.123 453.24 386.111 453.24C386.099 453.241 386.082 453.242 386.059 453.242V493.242ZM166.216 380.323L166.216 380.323V340.323C150.329 340.323 135.948 349.725 129.575 364.278L166.216 380.323ZM97.644 437.197C86.0706 463.626 105.433 493.242 134.285 493.242V453.242C134.262 453.242 134.244 453.241 134.232 453.24C134.22 453.24 134.212 453.239 134.208 453.238C134.204 453.238 134.203 453.237 134.205 453.238C134.207 453.238 134.211 453.239 134.216 453.24C134.228 453.243 134.242 453.248 134.258 453.255C134.274 453.261 134.288 453.268 134.3 453.274C134.323 453.287 134.329 453.294 134.322 453.288C134.319 453.285 134.314 453.28 134.307 453.271C134.3 453.263 134.292 453.253 134.285 453.242C134.278 453.231 134.271 453.22 134.267 453.21C134.262 453.2 134.259 453.193 134.257 453.189C134.254 453.18 134.258 453.189 134.261 453.215C134.262 453.228 134.263 453.244 134.263 453.261C134.262 453.278 134.261 453.293 134.259 453.305C134.258 453.311 134.257 453.315 134.257 453.317C134.256 453.318 134.256 453.317 134.257 453.314C134.259 453.31 134.261 453.302 134.265 453.291C134.269 453.279 134.276 453.263 134.285 453.242L97.644 437.197Z" fill="#25A8A8" mask="url(#path-1-inside-1)"/>
<path fill-rule="evenodd" clip-rule="evenodd" d="M284.889 325.682C285.541 324.236 286.845 323.189 288.389 322.827C352.796 307.705 400.682 250.76 400.682 182.821C400.682 103.325 335.117 38.8806 254.238 38.8806C173.36 38.8806 107.794 103.325 107.794 182.821C107.794 251.322 156.476 308.646 221.69 323.194C223.304 323.554 224.663 324.661 225.301 326.187L249.443 383.888C251.131 387.922 256.818 387.998 258.614 384.011L284.889 325.682Z" fill="#9FCCCC"/>
<path d="M258.614 384.011L267.732 388.118L258.614 384.011ZM221.69 323.194L223.867 313.434L221.69 323.194ZM225.301 326.187L234.526 322.327L225.301 326.187ZM288.389 322.827L290.675 332.562L288.389 322.827ZM284.889 325.682L294.007 329.789L284.889 325.682ZM390.682 182.821C390.682 245.903 346.203 298.981 286.103 313.092L290.675 332.562C359.389 316.429 410.682 255.616 410.682 182.821H390.682ZM254.238 48.8806C329.757 48.8806 390.682 109.01 390.682 182.821H410.682C410.682 97.6403 340.476 28.8806 254.238 28.8806V48.8806ZM117.794 182.821C117.794 109.01 178.719 48.8806 254.238 48.8806V28.8806C168 28.8806 97.7944 97.6403 97.7944 182.821H117.794ZM223.867 313.434C163.014 299.859 117.794 246.425 117.794 182.821H97.7944C97.7944 256.219 149.939 317.434 219.512 332.954L223.867 313.434ZM258.668 380.028L234.526 322.327L216.076 330.047L240.218 387.747L258.668 380.028ZM275.772 321.575L249.497 379.904L267.732 388.118L294.007 329.789L275.772 321.575ZM240.218 387.747C245.281 399.849 262.344 400.079 267.732 388.118L249.497 379.904C251.293 375.917 256.98 375.994 258.668 380.028L240.218 387.747ZM219.512 332.954C218.067 332.631 216.732 331.614 216.076 330.047L234.526 322.327C232.593 317.707 228.542 314.476 223.867 313.434L219.512 332.954ZM286.103 313.092C281.632 314.142 277.743 317.199 275.772 321.575L294.007 329.789C293.338 331.273 292.058 332.237 290.675 332.562L286.103 313.092Z" fill="#25A8A8"/>
<path fill-rule="evenodd" clip-rule="evenodd" d="M256.162 93.6304C266.236 93.6304 275.454 97.9762 282.551 105.171C291.208 113.948 304.708 119.69 317.029 120.088C324.967 120.344 332.513 122.869 338.689 127.848C355.989 141.795 355.993 169.712 338.698 190.204C338.589 190.333 338.48 190.462 338.37 190.59C331.097 199.061 327.601 211.26 331.341 221.78C333.909 229.004 335.307 235.784 335.307 241.478C335.307 270.611 298.712 277.683 256.037 277.683C213.361 277.683 175.396 270.611 175.396 241.478C175.396 236.98 176.301 231.805 177.988 226.269C181.283 215.46 177.374 203.138 170.101 194.489C166.646 190.38 163.683 185.635 161.407 180.352C150.86 155.871 159.065 129.129 179.733 120.624C183.457 119.091 187.333 118.255 191.245 118.058C205.012 117.364 221.947 111.657 232.425 102.7C239.101 96.993 247.3 93.6304 256.162 93.6304Z" fill="url(#paint0_linear)"/>
<path d="M301.465 229.269C301.465 245.974 279.414 250.029 253.7 250.029C227.986 250.029 205.11 245.974 205.11 229.269C205.11 212.565 227.986 179.556 253.7 179.556C279.414 179.556 301.465 212.565 301.465 229.269Z" fill="#ED9090" fill-opacity="0.64"/>
<ellipse cx="205.999" cy="166.79" rx="24.0887" ry="23.5427" fill="#ED9090" fill-opacity="0.64"/>
<ellipse cx="303.363" cy="166.79" rx="24.0887" ry="23.5427" fill="#ED9090" fill-opacity="0.64"/>
<ellipse cx="255.066" cy="142.112" rx="24.0887" ry="23.5427" fill="#ED9090" fill-opacity="0.64"/>
<defs>
<linearGradient id="paint0_linear" x1="254.237" y1="93.6304" x2="254.237" y2="277.683" gradientUnits="userSpaceOnUse">
<stop stop-color="#EDEDED"/>
</linearGradient>
</defs>
</svg>
