<svg id="Capa_1" enable-background="new 0 0 512 512" height="512" viewBox="0 0 512 512" width="512" xmlns="http://www.w3.org/2000/svg"><g><g><path d="m250.19 110.126v53.837c0 32.616-26.434 59.05-59.04 59.05h-2.503c-5.687 0-10.302 4.615-10.302 10.302v101.287c-79.169 0-124.621-19.264-150.602-39.868-3.791-7.943-7.263-16.019-10.364-24.219 6.737 2.946 14.175 4.584 21.994 4.584 30.401 0 55.032-24.642 55.032-55.043v-182.6c0-3.039-.422-5.975-1.205-8.767 13.588-4.45 27.835-6.892 42.104-7.675 16.349-.896 32.286 5.81 42.711 18.43 9.478 11.466 15.164 26.167 15.164 42.206v9.035c0 2.843 2.308 5.151 5.151 5.151h37.571c7.891.002 14.289 6.399 14.289 14.29z" fill="#fcb44d"/><path d="m250.19 110.126v53.837c0 32.616-26.434 59.05-59.04 59.05h-2.483c-5.697 0-10.302 4.615-10.302 10.302v101.287c-14.484 0-27.866-.649-40.167-1.834v-69.948c0-1.205-.361-2.39-1.03-3.4l-.051-.072c-2.648-3.843-8.447-3.091-10.147 1.257-11.157 28.423-37.56 49.243-69.084 52.354-12.197-5.594-22.097-11.847-30.143-18.224-2.864-5.985-5.532-12.043-8.004-18.183 0-.01 0-.01 0-.01-.804-1.999-1.587-3.997-2.349-6.016 6.727 2.936 14.175 4.574 21.984 4.574 30.401 0 55.032-24.642 55.032-55.043v-182.6c0-3.039-.422-5.985-1.205-8.777 1.422-.474 2.843-.917 4.275-1.339 9.539-2.802 19.367-4.656 29.247-5.666 3.822 7.901 5.944 16.74 5.944 26.084v175.255h18.317c32.626 0 59.06-26.434 59.06-59.05v-53.837c0-7.902-6.408-14.299-14.309-14.299h40.177c7.88-.001 14.278 6.397 14.278 14.298z" fill="#fca62f"/></g><g><path d="m104.712 47.757v182.606c0 30.396-24.638 55.034-55.034 55.034-11.038 0-21.322-3.256-29.941-8.847 0-.012 0-.012 0-.012-17.803-44.14-25.286-92.099-15.217-142.536 12.343-61.822 49.766-93.967 92.961-106.657 4.525 5.567 7.231 12.667 7.231 20.412z" fill="#fcc16d"/><path d="m104.712 47.757v182.606c0 30.396-24.638 55.034-55.034 55.034-7.59 0-14.833-1.544-21.418-4.322 19.742-8.356 33.593-27.918 33.593-50.712v-182.606c0-1.377-.084-2.742-.251-4.07 11.146-7.279 23.273-12.642 35.879-16.342 4.525 5.567 7.231 12.679 7.231 20.412z" fill="#fcb44d"/></g><g><g><path d="m376.265 248.822-66.961 65.8c-.453.445-.947.848-1.474 1.202l-68.017 45.714c-15.559 10.457-18.518 30.848-5.917 44.728 9.92 10.928 26.281 12.84 38.42 4.659l79.071-53.288 67.056-65.893z" fill="#f9a08f"/></g><g><path d="m357.097 291.485-55.221 75.921c-.374.514-.794.992-1.256 1.428l-59.568 56.282c-13.626 12.875-13.19 33.474 1.523 45.092 11.583 9.147 28.036 8.34 38.663-1.726l69.225-65.572 55.299-76.028z" fill="#fdb0a0"/></g><path d="m313.259 353.227c11.818 11.26 30.276 11.762 43.206 1.799l14.595-11.245-23.916 32.88-60.261 56.936c-13.626 12.874-13.19 33.475 1.52 45.094 11.582 9.148 28.035 8.342 38.662-1.724l69.227-65.574 103.99-142.971c8.748-12.028 12.819-26.829 11.453-41.639l-4.661-50.516c-4.802-52.04-31.779-99.493-74.041-130.238l-21.174-15.404c-23.088-16.796-55.422-11.694-72.216 11.395l-.001-.001-7.98 10.974c-40.981 56.343 12.21 171.443 26.831 200.598 2.052 4.092 1.155 9.037-2.196 12.154l-42.741 39.749c-13.846 12.879-13.938 34.735-.297 47.733z" fill="#ffcec0"/><path d="m396.291 411.387-69.225 65.583c-5.164 4.9-11.719 7.598-18.414 8.034s-13.541-1.398-19.303-5.589c-5.55-4.037-9.229-9.571-10.967-15.598 7.067-.199 14.043-2.914 19.5-8.078l69.217-65.571 103.99-142.968c8.754-12.034 12.83-26.825 11.467-41.644l-11.239-121.857c20.077 26.664 32.634 58.641 35.761 92.567l4.662 50.52c1.371 14.808-2.713 29.61-11.459 41.633z" fill="#fdb0a0"/><g><path d="m446.522 158.205-3.214 108.128c-.422 14.217-7.201 27.228-18.605 35.716l-71.124 55.146c-5.378 3.719-11.59 5.542-17.791 5.542-3.976 0-7.943-.752-11.672-2.246l91.181-70.701c.041-.031.093-.062.134-.093 7.613-5.656 12.146-14.34 12.434-23.828l3.214-108.118c.124-4.265 3.678-7.634 7.953-7.5 4.265.125 7.613 3.689 7.49 7.954z" fill="#fdb0a0"/></g></g><g><path d="m188.647 223.014c-5.687 0-10.302 4.615-10.302 10.302v5.151h-32.698c-4.265 0-7.726-3.461-7.726-7.726s3.461-7.726 7.726-7.726h43z" fill="#f28a22"/></g><g><path d="m263.781 381.782v27.475c0 9.458-5.926 17.898-14.953 21.166l-.575.215c-22.387 8.117-37.28 29.379-37.268 53.179.005 6.146-7.028 9.646-11.917 5.922-36.638-27.911-80.707-66.221-118.049-112.267l9.901-37.28c7.734-26.482 34.718-42.392 61.631-36.358l46.391 10.415c11.66 2.622 20.627 11.972 22.758 23.74l2.394 13.143c.294 1.612 1.337 2.988 2.81 3.707l28.808 14.05c4.932 2.394 8.069 7.398 8.069 12.893z" fill="#fb946d"/><path d="m255.712 368.876-28.812-14.024c-1.477-.719-2.523-2.1-2.815-3.716l-2.373-13.147c-2.143-11.768-11.11-21.118-22.77-23.74l-46.379-10.415c-26.925-6.034-53.909 9.877-61.643 36.358l-9.901 37.28c21.657 26.697 45.565 50.796 68.981 71.771l-.036-38.393c-.012-13.624 8.56-25.907 21.346-30.612l.73-.251c7.471-2.718 13.944-7.235 18.995-12.947 4.116-4.655 10.778-6.088 16.422-3.488l.003.001 10.947 5.325c4.932 2.418 8.057 7.422 8.057 12.894v27.487c0 9.458-5.914 17.898-14.953 21.166l-.575.215c-18.209 6.608-31.462 21.896-35.772 40.189 8.207 6.738 16.216 13.042 23.895 18.889 4.895 3.727 11.936.245 11.936-5.907v-.004c-.024-23.8 14.881-45.05 37.256-53.167l.575-.215c9.027-3.268 14.953-11.708 14.953-21.166v-27.489c.002-5.471-3.135-10.475-8.067-12.894z" fill="#fc7d4b"/><path d="m178.805 308.826v27.475c0 9.458-5.914 17.898-14.941 21.178l-.587.204c-22.375 8.117-37.268 29.379-37.256 53.179l.012 15.911c-47.612-46.81-93.404-105.759-114.283-172.513 11.469-18.436 33.677-28.349 55.836-23.369l46.379 10.403c11.672 2.622 20.639 11.972 22.77 23.74l2.384 13.14c.293 1.614 1.337 2.992 2.811 3.711l28.817 14.049c4.933 2.405 8.058 7.409 8.058 12.892z" fill="#90bac4"/><path d="m178.817 308.826v27.475c0 9.458-5.926 17.91-14.965 21.166l-.575.215c-22.375 8.117-37.28 29.367-37.256 53.167l.012 15.922c-11.457-11.254-22.794-23.213-33.713-35.82 5.699-15.168 17.79-27.511 33.653-33.27l.575-.215c9.039-3.256 14.941-11.708 14.941-21.166v-27.475c0-5.483-3.113-10.487-8.045-12.894l-16.294-7.937c-6.68-3.663-15.025-1.736-19.466 4.442-1.03 1.437-1.951 2.634-2.586 3.292-7.159 7.518-18.46 14.941-35.951 17.658-5.387.826-10.691 1.245-15.767 1.245-1.832 0-3.651-.06-5.447-.18-10.691-19.215-19.658-39.327-26.182-60.194 11.469-18.436 33.677-28.349 55.848-23.381l46.379 10.415c11.649 2.622 20.627 11.972 22.758 23.74l2.384 13.15c.293 1.615 1.337 2.993 2.813 3.712l28.816 14.037c4.931 2.409 8.068 7.413 8.068 12.896z" fill="#7da2b0"/></g><g><g><path d="m55.256 288.198c-13.349 2.071-23.704.599-31.689-2.574-5.567-12.63-10.296-25.583-14.031-38.848 11.182-9.961 31.139-22.016 61.26-20.651 5.615.251 10.38 4.154 11.792 9.601 4.046 15.623 7.578 47.061-27.332 52.472z" fill="#cbe5e7"/><path d="m55.248 288.192c-10.193 1.58-18.641 1.096-25.623-.637 31.255-6.88 27.827-36.734 23.928-51.832-.879-3.389-3.058-6.167-5.925-7.861 6.931-1.427 14.64-2.115 23.177-1.733 5.606.255 10.372 4.154 11.786 9.594 4.039 15.634 7.568 47.067-27.343 52.469z" fill="#a9d3d8"/></g></g></g></svg>