<?xml version="1.0" encoding="utf-8"?>
<!-- Generator: Adobe Illustrator 25.2.3, SVG Export Plug-In . SVG Version: 6.00 Build 0)  -->
<svg version="1.1" id="Capa_1" xmlns="http://www.w3.org/2000/svg" xmlns:xlink="http://www.w3.org/1999/xlink" x="0px" y="0px"
	 viewBox="0 0 368.2 368.2" style="enable-background:new 0 0 368.2 368.2;" xml:space="preserve">
<style type="text/css">
	.st0{fill:#7279B8;}
	.st1{fill:#F7F7F7;}
</style>
<g>
	<path class="st0" d="M305.4,182c-3.5,8.3-10.8,21.6-15.9,29.1L186.4,364.5c-2,3-2.7,3-4.7,0L78.4,211.1
		c-5.1-7.5-12.3-20.8-15.9-29.1c-0.2-0.4-11.4-26.9-11.4-50.1C51.2,60.1,110.8,1.6,184,1.6s132.8,58.4,132.8,130.3
		C316.8,155.1,305.5,181.7,305.4,182z"/>
	<path class="st1" d="M136.7,114.2v0.7l0.7,0c11.3,0,22.4,3.7,31.3,10.6l0.2,0.2h0.3H185c9.5,0,18.1,4.1,24,10.5l0.2,0.2h0.3l23,0h0
		c6.8,0,13.4,1.9,19.2,5.4c5.6,3.5,10.1,8.4,13.1,14.2c-17.2,22-44.9,36.4-76.2,36.4c-20.3,0-37.5-4.3-51.3-11.8l-0.7-0.4l-0.3,0.8
		c-0.5,1.2-1.3,2.3-2.4,3.1c-1.1,0.8-2.4,1.2-3.8,1.2h0h-22c-1.7,0-3.4-0.7-4.7-1.9c-1.2-1.2-1.9-2.9-1.9-4.6v-64.7
		c0-1.7,0.7-3.4,1.9-4.6c1.2-1.2,2.9-1.9,4.7-1.9h22c1.7,0,3.4,0.7,4.7,1.9C136,110.8,136.7,112.4,136.7,114.2z M137.4,127.8h-0.7
		v0.7l0,36.1v0.4l0.3,0.2l0.3,0.2l0,0l0,0c13.3,9.2,30.6,14.1,51.4,14.1c22.2,0,42.8-8.4,57.9-22.7l0,0l0,0l1-1l0.6-0.6l-0.6-0.5
		l-0.9-0.7l0,0l0,0c-3.6-2.7-7.9-4.4-12.4-4.7l0,0l0,0l-1.5-0.1l0,0h0l-15.5,0l-0.9,0l0.2,0.9c0.5,2.3,0.8,4.6,0.8,7v6.5h-64.5
		v-12.9l49,0h1.1l-0.4-1l-0.2-0.6l0,0l0,0c-1.5-3-3.7-5.5-6.5-7.4c-2.8-1.9-6.1-3-9.4-3.2l0,0h0l-1.2,0l0,0h0h-21.2
		c-3.4-3.4-7.5-6.1-12-7.9C147.3,128.8,142.4,127.8,137.4,127.8L137.4,127.8z M123.5,121.3v-0.7h-0.7h-7.3h-0.7v0.7v50.3v0.7h0.7
		h7.3h0.7v-0.7V121.3z M195.5,71.1l0.5,0.5l0.5-0.5l2.6-2.5l0,0c1.6-1.6,3.6-2.9,5.7-3.8c2.1-0.9,4.4-1.3,6.7-1.3
		c2.3,0,4.6,0.4,6.7,1.3c2.1,0.9,4.1,2.1,5.7,3.7c1.6,1.6,2.9,3.5,3.8,5.6s1.3,4.3,1.3,6.6c0,2.3-0.5,4.5-1.4,6.6
		c-0.9,2.1-2.2,4-3.8,5.6l0,0l-28,27.4l-28-27.4l0,0c-1.6-1.6-2.9-3.5-3.8-5.6c-0.9-2.1-1.4-4.3-1.4-6.6c0-2.3,0.4-4.5,1.3-6.6
		c0.9-2.1,2.2-4,3.8-5.6c1.6-1.6,3.6-2.9,5.7-3.7s4.4-1.3,6.7-1.3c2.3,0,4.6,0.5,6.7,1.3c2.1,0.9,4.1,2.2,5.7,3.8l0.5-0.5l-0.5,0.5
		L195.5,71.1z M196,89.9l-12.4-12.2l0,0l0,0l-0.5-0.4l0,0l0,0c-0.8-0.6-1.9-0.8-2.9-0.7c-1,0.1-2,0.5-2.7,1.2l-0.2,0.2v0
		c-0.6,0.7-1,1.5-1.1,2.4c-0.1,1,0.2,2,0.7,2.8l0,0l0,0l0.4,0.5l0,0l0,0l18.1,17.8l0.5,0.5l0.5-0.5l18.1-17.8
		c0.7-0.7,1.2-1.7,1.3-2.7c0.1-1-0.2-2-0.8-2.8l0,0l0,0l-0.4-0.5l0,0l0,0c-0.7-0.7-1.7-1.2-2.7-1.2c-1-0.1-2,0.2-2.9,0.7l0,0l0,0
		l-0.5,0.4l0,0l0,0L196,89.9z"/>
</g>
</svg>
