<?xml version="1.0" encoding="utf-8"?>
<!-- Generator: Adobe Illustrator 25.2.3, SVG Export Plug-In . SVG Version: 6.00 Build 0)  -->
<svg version="1.1" id="Capa_1" xmlns="http://www.w3.org/2000/svg" xmlns:xlink="http://www.w3.org/1999/xlink" x="0px" y="0px"
	 viewBox="0 0 368.2 368.2" style="enable-background:new 0 0 368.2 368.2;" xml:space="preserve">
<style type="text/css">
	.st0{fill:#DD6A69;}
	.st1{fill:#EEEEEF;}
</style>
<g>
	<path class="st0" d="M305.5,181.6c-3.5,8.3-10.8,21.6-15.9,29.1L186.5,364.1c-2,3-2.7,3-4.7,0L78.5,210.7
		c-5.1-7.5-12.3-20.8-15.9-29.1c-0.2-0.4-11.4-26.9-11.4-50.1c0-71.8,59.6-130.3,132.8-130.3s132.8,58.4,132.8,130.3
		C316.9,154.8,305.6,181.4,305.5,181.6z"/>
	<path class="st1" d="M231.8,60L231.8,60c10.4-5.8,23.3,1.5,23.3,13.3v100.4c0,11.7-12.9,19.1-23.3,13.3h0l-43-24.1l-0.2-0.1h-0.2
		h-14.1h-0.7v0.7v28c0,5.1-2.1,10-5.8,13.6c-3.7,3.6-8.7,5.6-13.9,5.6c-5.2,0-10.2-2-13.9-5.6c-3.7-3.6-5.8-8.5-5.8-13.6v-28.8v-0.6
		l-0.6-0.1c-9.7-2-18.3-7.4-24.2-15.2c-5.9-7.8-8.5-17.5-7.6-27.2c1-9.7,5.6-18.6,12.9-25.2c7.3-6.5,16.9-10.2,26.8-10.2h46.7h0.2
		l0.2-0.1L231.8,60z M183.2,99.5v-0.7h-0.7h-40.8c-6.7,0-13.1,2.6-17.8,7.2c-4.7,4.6-7.4,10.9-7.4,17.5s2.7,12.8,7.4,17.5
		c4.7,4.6,11.1,7.2,17.8,7.2h40.8h0.7v-0.7V99.5z M198.1,150.8v0.4l0.4,0.2l40.8,22.8l1.1,0.6v-1.2V73.3v-1.2l-1.1,0.6l-40.8,22.8
		l-0.4,0.2v0.4V150.8z M149.9,162.7h-0.7v0.7v28c0,1.2,0.5,2.4,1.4,3.3c0.9,0.9,2.1,1.4,3.4,1.4c1.3,0,2.5-0.5,3.4-1.4
		c0.9-0.9,1.4-2.1,1.4-3.3v-28v-0.7H158H149.9z"/>
</g>
</svg>
