<?xml version="1.0" encoding="utf-8"?>
<!-- Generator: Adobe Illustrator 25.2.3, SVG Export Plug-In . SVG Version: 6.00 Build 0)  -->
<svg version="1.1" id="Capa_1" xmlns="http://www.w3.org/2000/svg" xmlns:xlink="http://www.w3.org/1999/xlink" x="0px" y="0px"
	 viewBox="0 0 368.2 368.2" style="enable-background:new 0 0 368.2 368.2;" xml:space="preserve">
<style type="text/css">
	.st0{fill:#64A3D9;}
	.st1{clip-path:url(#SVGID_2_);}
	.st2{fill:#FFFFFF;}
</style>
<g>
	<path class="st0" d="M305.5,181.9c-3.5,8.3-10.8,21.6-15.9,29.1L186.5,364.4c-2,3-2.7,3-4.7,0L78.5,211
		c-5.1-7.5-12.3-20.8-15.9-29.1c-0.2-0.4-11.4-26.9-11.4-50.1C51.3,60,110.9,1.5,184.1,1.5S316.9,60,316.9,131.8
		C316.9,155,305.6,181.6,305.5,181.9z"/>
	<g>
		<defs>
			<rect id="SVGID_1_" x="91.2" y="38.3" width="167.1" height="163.9"/>
		</defs>
		<clipPath id="SVGID_2_">
			<use xlink:href="#SVGID_1_"  style="overflow:visible;"/>
		</clipPath>
		<g class="st1">
			<path class="st2" d="M177.8,138.9v57.7H119c0-15.3,6.2-30,17.2-40.8C147.3,145,162.2,138.9,177.8,138.9L177.8,138.9z
				 M177.8,131.7c-24.4,0-44.1-19.4-44.1-43.3s19.7-43.3,44.1-43.3s44.1,19.4,44.1,43.3S202.2,131.7,177.8,131.7z M247.2,182.4
				l11.1,10.8l-10.4,10.2l-11.1-10.8c-6.2,3.6-13.4,4.8-20.5,3.5c-7-1.3-13.3-5.1-17.7-10.7c-4.4-5.5-6.5-12.5-6.1-19.5
				c0.5-7,3.5-13.6,8.6-18.6c5.1-5,11.8-7.9,18.9-8.4c7.1-0.4,14.2,1.7,19.9,6c5.7,4.3,9.5,10.5,10.9,17.4
				C252.1,169.2,250.9,176.3,247.2,182.4L247.2,182.4z M221.9,182.1c3.9,0,7.6-1.5,10.4-4.2s4.3-6.4,4.3-10.2
				c0-3.8-1.5-7.5-4.3-10.2c-2.8-2.7-6.5-4.2-10.4-4.2c-3.9,0-7.6,1.5-10.4,4.2c-2.8,2.7-4.3,6.4-4.3,10.2c0,3.8,1.5,7.5,4.3,10.2
				S218,182.1,221.9,182.1L221.9,182.1z"/>
		</g>
	</g>
</g>
</svg>
