<?xml version="1.0" encoding="utf-8"?>
<!-- Generator: Adobe Illustrator 25.2.3, SVG Export Plug-In . SVG Version: 6.00 Build 0)  -->
<svg version="1.1" id="Capa_1" xmlns="http://www.w3.org/2000/svg" xmlns:xlink="http://www.w3.org/1999/xlink" x="0px" y="0px"
	 viewBox="0 0 368.2 368.2" style="enable-background:new 0 0 368.2 368.2;" xml:space="preserve">
<style type="text/css">
	.st0{fill:#ECB460;}
	.st1{fill:#F7F7F7;}
</style>
<g>
	<path class="st0" d="M305.4,182c-3.5,8.3-10.8,21.6-15.9,29.1L186.4,364.5c-2,3-2.7,3-4.7,0L78.4,211.1
		c-5.1-7.5-12.3-20.8-15.9-29.1c-0.2-0.4-11.4-26.9-11.4-50.1C51.2,60.1,110.8,1.6,184,1.6s132.8,58.4,132.8,130.3
		C316.8,155.1,305.5,181.7,305.4,182z"/>
	<path class="st1" d="M261.1,106.2v43.9c0,4-3.3,7.3-7.5,7.3h-39.8v39.1c0,4-3.3,7.3-7.5,7.3h-44.8c-4.1,0-7.5-3.3-7.5-7.3v-39.1
		h-39.8c-4.1,0-7.5-3.3-7.5-7.3v-43.9c0-4,3.3-7.3,7.5-7.3h39.8V59.8c0-4,3.3-7.3,7.5-7.3h44.8c4.1,0,7.5,3.3,7.5,7.3v39.1h39.8
		C257.8,98.9,261.1,102.2,261.1,106.2L261.1,106.2z"/>
</g>
</svg>
