<svg width="513" height="513" viewBox="0 0 513 513" fill="none" xmlns="http://www.w3.org/2000/svg">
<circle cx="256.987" cy="256.979" r="256" fill="#787570"/>
<g clip-path="url(#clip0)">
<path d="M252.234 290.732V393.611H149.356C149.356 366.326 160.195 340.158 179.488 320.865C198.782 301.571 224.949 290.732 252.234 290.732V290.732ZM252.234 277.873C209.604 277.873 175.075 243.344 175.075 200.714C175.075 158.084 209.604 123.556 252.234 123.556C294.864 123.556 329.393 158.084 329.393 200.714C329.393 243.344 294.864 277.873 252.234 277.873ZM373.707 368.303L393.048 387.644L374.865 405.827L355.524 386.486C344.739 392.845 332.005 395.053 319.709 392.695C307.413 390.336 296.399 383.575 288.732 373.677C281.065 363.779 277.27 351.425 278.061 338.929C278.851 326.434 284.171 314.656 293.024 305.803C301.877 296.95 313.655 291.63 326.15 290.84C338.646 290.049 351 293.843 360.898 301.511C370.796 309.178 377.557 320.192 379.916 332.488C382.274 344.784 380.066 357.518 373.707 368.303V368.303ZM329.393 367.891C336.214 367.891 342.756 365.181 347.579 360.358C352.402 355.535 355.112 348.993 355.112 342.172C355.112 335.35 352.402 328.808 347.579 323.985C342.756 319.162 336.214 316.452 329.393 316.452C322.571 316.452 316.029 319.162 311.206 323.985C306.383 328.808 303.673 335.35 303.673 342.172C303.673 348.993 306.383 355.535 311.206 360.358C316.029 365.181 322.571 367.891 329.393 367.891V367.891Z" fill="white"/>
</g>
<defs>
<clipPath id="clip0">
<rect width="292.431" height="292.431" fill="white" transform="translate(100.618 111.371)"/>
</clipPath>
</defs>
</svg>
