<svg width="513" height="513" viewBox="0 0 513 513" fill="none" xmlns="http://www.w3.org/2000/svg">
<circle cx="256.889" cy="256.979" r="256" fill="#787570"/>
<g clip-path="url(#clip0)">
<path d="M256.889 99.8181C218.914 99.8181 188.132 134.449 188.132 177.171C188.132 211.709 233.07 274.659 250.287 297.509C253.774 302.138 260.011 302.138 263.492 297.509C280.709 274.659 325.647 211.709 325.647 177.171C325.647 134.449 294.864 99.8181 256.889 99.8181ZM256.889 202.955C244.229 202.955 233.97 191.413 233.97 177.171C233.97 162.928 244.229 151.386 256.889 151.386C269.55 151.386 279.809 162.928 279.809 177.171C279.809 191.413 269.55 202.955 256.889 202.955ZM110.708 232.392C107.468 233.85 104.69 236.367 102.733 239.618C100.776 242.869 99.7295 246.705 99.7288 250.631V404.305C99.7288 411.254 105.966 416.006 111.701 413.427L187.04 374.849V231.759C182.216 221.949 178.271 212.397 175.444 203.262L110.708 232.392ZM256.889 320.623C249.211 320.623 241.948 316.829 236.966 310.211C226.238 295.968 214.827 279.749 204.503 263.112V374.843L309.276 414.133V263.118C298.952 279.749 287.547 295.974 276.813 310.217C271.831 316.829 264.567 320.623 256.889 320.623ZM402.078 198.756L326.739 237.334V414.139L403.071 379.791C406.312 378.334 409.09 375.817 411.047 372.566C413.004 369.315 414.05 365.479 414.05 361.552V207.878C414.05 200.929 407.813 196.177 402.078 198.756Z" fill="white"/>
</g>
<defs>
<clipPath id="clip0">
<rect width="314.321" height="314.321" fill="white" transform="translate(99.7288 99.8181)"/>
</clipPath>
</defs>
</svg>
