<svg width="512" height="513" viewBox="0 0 512 513" fill="none" xmlns="http://www.w3.org/2000/svg">
<circle cx="256" cy="256.979" r="256" fill="#787570"/>
<path d="M164.026 233.502V235.004L165.528 235.002C188.881 234.968 211.561 242.824 229.888 257.298L230.297 257.621H230.818H263.539C283.181 257.621 300.844 266.157 312.981 279.724L313.428 280.224L314.099 280.224L361.552 280.239H361.553C375.523 280.235 389.208 284.191 401.021 291.649C412.577 298.944 421.878 309.298 427.898 321.553C392.474 367.831 335.437 397.871 271.079 397.871C229.226 397.871 193.896 388.826 165.347 373.057L163.809 372.208L163.211 373.859C162.261 376.48 160.526 378.744 158.242 380.343C155.959 381.941 153.237 382.797 150.45 382.792H150.447H105.21C101.609 382.792 98.1548 381.361 95.6083 378.815C93.0617 376.268 91.6311 372.814 91.6311 369.213V233.502C91.6311 229.901 93.0617 226.447 95.6083 223.9C98.1548 221.354 101.609 219.923 105.21 219.923H150.447C154.048 219.923 157.502 221.354 160.049 223.9C162.595 226.447 164.026 229.901 164.026 233.502ZM165.541 262.16H164.041L164.041 263.66L164.026 339.371L164.026 340.132L164.639 340.581L165.318 341.079L165.33 341.088L165.343 341.097C192.711 360.308 228.284 370.713 271.079 370.713C316.762 370.713 359.284 353.132 390.267 323.093L390.275 323.085L390.283 323.076L392.289 321.071L393.45 319.909L392.189 318.858L390.379 317.35L390.362 317.335L390.344 317.321C382.987 311.559 374.069 308.14 364.746 307.506L364.72 307.504L364.695 307.503L361.604 307.398L361.579 307.397L361.553 307.397L329.707 307.382L327.828 307.381L328.243 309.214C329.32 313.962 329.895 318.902 329.895 323.976V337.555H197.184V310.397L298.07 310.382L300.36 310.382L299.445 308.282L298.933 307.106L298.922 307.082L298.911 307.058C295.906 300.779 291.284 295.414 285.52 291.512C279.755 287.61 273.056 285.313 266.111 284.857L266.084 284.855L266.058 284.855L263.585 284.779L263.562 284.778H263.539H219.986C212.93 277.681 204.552 272.032 195.323 268.152C185.899 264.19 175.778 262.153 165.555 262.16H165.541ZM136.868 248.581V247.081H135.368H120.289H118.789V248.581V354.134V355.634H120.289H135.368H136.868V354.134V248.581ZM285.096 143.032L286.156 144.095L287.219 143.033L292.557 137.695L292.561 137.691C295.917 134.306 299.909 131.617 304.307 129.779C308.706 127.941 313.424 126.99 318.191 126.98C322.957 126.97 327.679 127.902 332.085 129.722C336.491 131.542 340.494 134.215 343.864 137.586C347.234 140.957 349.905 144.961 351.724 149.367C353.543 153.773 354.473 158.495 354.462 163.262C354.451 168.029 353.498 172.747 351.659 177.144C349.82 181.542 347.13 185.533 343.744 188.888L343.74 188.893L286.158 246.46L228.561 188.863L228.557 188.859C225.172 185.502 222.483 181.51 220.645 177.112C218.807 172.714 217.856 167.996 217.846 163.229C217.836 158.462 218.768 153.74 220.588 149.335C222.408 144.929 225.081 140.926 228.452 137.556C231.823 134.186 235.827 131.515 240.233 129.696C244.639 127.877 249.361 126.947 254.128 126.958C258.895 126.969 263.612 127.921 268.01 129.761C272.408 131.6 276.399 134.29 279.754 137.675L280.819 136.621L279.758 137.679L285.096 143.032ZM286.144 182.479L260.56 156.851L260.508 156.8L260.452 156.753L259.426 155.909L259.378 155.869L259.326 155.833C257.584 154.629 255.476 154.075 253.368 154.267C251.261 154.459 249.287 155.384 247.791 156.881L247.352 157.32V157.365C246.114 158.787 245.347 160.566 245.169 162.455C244.971 164.559 245.516 166.665 246.71 168.409L246.752 168.47L246.799 168.527L247.674 169.567L247.716 169.617L247.762 169.663L285.098 206.969L286.158 208.028L287.218 206.969L324.553 169.663C326.051 168.168 326.976 166.194 327.168 164.086C327.359 161.978 326.805 159.87 325.602 158.129L325.565 158.075L325.523 158.025L324.648 156.969L324.603 156.914L324.553 156.864C323.055 155.37 321.08 154.448 318.972 154.26C316.865 154.071 314.758 154.628 313.019 155.834L312.966 155.871L312.916 155.912L311.86 156.786L311.807 156.831L311.757 156.88L286.144 182.479Z" fill="white" stroke="#787570" stroke-width="3"/>
</svg>
