<svg width="513" height="513" viewBox="0 0 513 513" fill="none" xmlns="http://www.w3.org/2000/svg">
<circle cx="256.035" cy="256.979" r="256" fill="#787570"/>
<path d="M358.128 107.526L358.129 107.526C379.496 95.3028 406.125 110.734 406.125 135.374V346.177C406.125 370.801 379.512 386.248 358.129 374.025L358.128 374.025L269.569 323.432L269.223 323.234H268.825H239.708H238.208V324.734V383.505C238.208 394.241 233.943 404.537 226.352 412.128C218.761 419.719 208.465 423.984 197.729 423.984C186.993 423.984 176.697 419.719 169.106 412.128C161.515 404.537 157.25 394.241 157.25 383.505V323.055V321.834L156.054 321.586C136.077 317.448 118.342 306.054 106.274 289.604C94.2061 273.155 88.6619 252.817 90.7123 232.519C92.7626 212.22 102.262 193.402 117.375 179.698C132.489 165.994 152.145 158.377 172.546 158.317L268.825 158.317H269.223L269.569 158.12L358.128 107.526ZM258 190.401V188.901H256.5H172.542C158.783 188.901 145.589 194.366 135.86 204.094C126.132 213.823 120.667 227.018 120.667 240.776C120.667 254.534 126.132 267.728 135.86 277.457C145.589 287.185 158.783 292.651 172.542 292.651H256.5H258V291.151V190.401ZM288.583 298.203V299.074L289.339 299.505L373.297 347.479L375.542 348.762V346.177V135.374V132.79L373.297 134.072L289.339 182.046L288.583 182.478V183.348V298.203ZM189.333 323.234H187.833V324.734V383.505C187.833 386.129 188.876 388.646 190.732 390.502C192.587 392.358 195.105 393.401 197.729 393.401C200.354 393.401 202.871 392.358 204.726 390.502C206.582 388.646 207.625 386.129 207.625 383.505V324.734V323.234H206.125H189.333Z" fill="white" stroke="#787570" stroke-width="3"/>
</svg>
