<svg xmlns="http://www.w3.org/2000/svg" xmlns:xlink="http://www.w3.org/1999/xlink" width="15" height="15" viewBox="0 0 15 15">
  <defs>
    <style>
      .cls-1, .cls-3 {
        fill: #515151;
      }

      .cls-1 {
        stroke: #707070;
      }

      .cls-2 {
        clip-path: url(#clip-path);
      }
    </style>
    <clipPath id="clip-path">
      <rect id="Rectangle_107" data-name="Rectangle 107" class="cls-1" width="15" height="15" transform="translate(624 220)"/>
    </clipPath>
  </defs>
  <g id="Mask_Group_26" data-name="Mask Group 26" class="cls-2" transform="translate(-624 -220)">
    <path id="lock" class="cls-3" d="M7.5.938A1.875,1.875,0,0,1,9.375,2.813v3.75H5.625V2.813A1.875,1.875,0,0,1,7.5.938Zm2.813,5.625V2.813a2.813,2.813,0,1,0-5.625,0v3.75A1.875,1.875,0,0,0,2.813,8.438v4.688A1.875,1.875,0,0,0,4.688,15h5.625a1.875,1.875,0,0,0,1.875-1.875V8.438A1.875,1.875,0,0,0,10.313,6.563ZM4.688,7.5h5.625a.938.938,0,0,1,.938.938v4.688a.938.938,0,0,1-.937.938H4.688a.938.938,0,0,1-.937-.937V8.438A.937.937,0,0,1,4.688,7.5Z" transform="translate(624 220)"/>
  </g>
</svg>
