<svg xmlns="http://www.w3.org/2000/svg" xmlns:xlink="http://www.w3.org/1999/xlink" width="15" height="15" viewBox="0 0 15 15">
  <defs>
    <style>
      .cls-1, .cls-3 {
        fill: #515151;
      }

      .cls-1 {
        stroke: #707070;
      }

      .cls-2 {
        clip-path: url(#clip-path);
      }
    </style>
    <clipPath id="clip-path">
      <rect id="Rectangle_109" data-name="Rectangle 109" class="cls-1" width="15" height="15" transform="translate(432 220)"/>
    </clipPath>
  </defs>
  <g id="Mask_Group_28" data-name="Mask Group 28" class="cls-2" transform="translate(-432 -220)">
    <path id="person" class="cls-3" d="M10,10A3.75,3.75,0,1,0,6.25,6.25,3.75,3.75,0,0,0,10,10Zm2.5-3.75A2.5,2.5,0,1,1,10,3.75,2.5,2.5,0,0,1,12.5,6.25Zm5,10a1.224,1.224,0,0,1-1.25,1.25H3.75A1.224,1.224,0,0,1,2.5,16.25c0-1.25,1.25-5,7.5-5S17.5,15,17.5,16.25Zm-1.25,0a3.34,3.34,0,0,0-1.04-2.08C14.395,13.35,12.861,12.5,10,12.5s-4.395.85-5.21,1.665a3.347,3.347,0,0,0-1.04,2.08Z" transform="translate(429.5 217.5)"/>
  </g>
</svg>
