<svg xmlns="http://www.w3.org/2000/svg" xmlns:xlink="http://www.w3.org/1999/xlink" width="88.515" height="35" viewBox="0 0 88.515 35">
  <defs>
    <style>
      .cls-1, .cls-3, .cls-5 {
        fill: #fff;
      }

      .cls-1 {
        stroke: #707070;
      }

      .cls-2 {
        fill: #28a745;
      }

      .cls-3 {
        font-size: 14px;
        font-family: SourceHanSansTW-Normal, Source Han Sans TW;
      }

      .cls-4 {
        clip-path: url(#clip-path);
      }

      .cls-6, .cls-7 {
        stroke: none;
      }

      .cls-7 {
        fill: #28a745;
      }
    </style>
    <clipPath id="clip-path">
      <rect id="Rectangle_118" data-name="Rectangle 118" class="cls-1" width="10" height="10" transform="translate(293 298)"/>
    </clipPath>
  </defs>
  <g id="Group_339" data-name="Group 339" transform="translate(-291.51 -288)">
    <g id="Group_332" data-name="Group 332" transform="translate(-481.49 -259)">
      <g id="Path_142" data-name="Path 142" class="cls-2" transform="translate(773 547)">
        <path class="cls-6" d="M 82.61367797851563 34.5 L 5.900982856750488 34.5 C 2.922877073287964 34.5 0.5000065565109253 32.63083648681641 0.5000065565109253 30.33333015441895 L 0.5000065565109253 4.666670799255371 C 0.5000065565109253 2.369164705276489 2.922877073287964 0.5 5.900982856750488 0.5 L 82.61367797851563 0.5 C 85.59178161621094 0.5 88.01465606689453 2.369164705276489 88.01465606689453 4.666670799255371 L 88.01465606689453 30.33333015441895 C 88.01465606689453 32.63083648681641 85.59178161621094 34.5 82.61367797851563 34.5 Z"/>
        <path class="cls-7" d="M 5.900970458984375 1 C 4.548934936523438 1 3.287368774414063 1.408836364746094 2.348655700683594 2.151199340820313 C 1.478958129882813 2.8389892578125 0.9999923706054688 3.732330322265625 0.9999923706054688 4.666669845581055 L 0.9999923706054688 30.33332824707031 C 0.9999923706054688 31.26766967773438 1.478958129882813 32.1610107421875 2.348655700683594 32.84880065917969 C 3.287368774414063 33.59116363525391 4.548934936523438 34 5.900970458984375 34 L 82.61367797851563 34 C 83.96571350097656 34 85.22727966308594 33.59116363525391 86.16598510742188 32.84880065917969 C 87.03567504882813 32.1610221862793 87.51464080810547 31.26766967773438 87.51464080810547 30.33332824707031 L 87.51464080810547 4.666669845581055 C 87.51464080810547 3.732330322265625 87.03567504882813 2.838977813720703 86.16598510742188 2.151199340820313 C 85.22727966308594 1.408836364746094 83.96571350097656 1 82.61367797851563 1 L 5.900970458984375 1 M 5.900970458984375 0 L 82.61367797851563 0 C 85.87268829345703 0 88.51464080810547 2.089340209960938 88.51464080810547 4.666669845581055 L 88.51464080810547 30.33332824707031 C 88.51464080810547 32.91065979003906 85.87268829345703 35 82.61367797851563 35 L 5.900970458984375 35 C 2.641960144042969 35 -7.62939453125e-06 32.91065979003906 -7.62939453125e-06 30.33332824707031 L -7.62939453125e-06 4.666669845581055 C -7.62939453125e-06 2.089340209960938 2.641960144042969 0 5.900970458984375 0 Z"/>
      </g>
      <text id="刊登協尋" class="cls-3" transform="translate(794.503 570.5)"><tspan x="0" y="0">刊登協尋</tspan></text>
    </g>
    <g id="Mask_Group_32" data-name="Mask Group 32" class="cls-4" transform="translate(7 3)">
      <path id="plus" class="cls-5" d="M12.5,7.5a.625.625,0,0,1,.625.625v3.75h3.75a.625.625,0,0,1,0,1.25h-3.75v3.75a.625.625,0,0,1-1.25,0v-3.75H8.125a.625.625,0,0,1,0-1.25h3.75V8.125A.625.625,0,0,1,12.5,7.5Z" transform="translate(285.5 290.5)"/>
    </g>
  </g>
</svg>
