<svg id="Group_348" data-name="Group 348" xmlns="http://www.w3.org/2000/svg" xmlns:xlink="http://www.w3.org/1999/xlink" width="50" height="30" viewBox="0 0 50 30">
  <defs>
    <style>
      .cls-1, .cls-3, .cls-5 {
        fill: #fff;
      }

      .cls-1 {
        stroke: #707070;
      }

      .cls-2 {
        fill: #dc3545;
      }

      .cls-3 {
        font-size: 14px;
        font-family: SourceHanSansTW-Normal, Source Han Sans TW;
      }

      .cls-4 {
        clip-path: url(#clip-path);
      }

      .cls-6, .cls-7 {
        stroke: none;
      }

      .cls-7 {
        fill: #dc3545;
      }
    </style>
    <clipPath id="clip-path">
      <rect id="Rectangle_129" data-name="Rectangle 129" class="cls-1" width="10" height="10"/>
    </clipPath>
  </defs>
  <g id="Path_142" data-name="Path 142" class="cls-2" transform="translate(0 0)">
    <path class="cls-6" d="M 46.66667175292969 29.5 L 3.333339929580688 29.5 C 1.771029949188232 29.5 0.5 27.92991065979004 0.5 26 L 0.5 4.000000953674316 C 0.5 2.070091009140015 1.771029949188232 0.5000009536743164 3.333339929580688 0.5000009536743164 L 46.66667175292969 0.5000009536743164 C 48.22896957397461 0.5000009536743164 49.5 2.070091009140015 49.5 4.000000953674316 L 49.5 26 C 49.5 27.92991065979004 48.22896957397461 29.5 46.66667175292969 29.5 Z"/>
    <path class="cls-7" d="M 3.333328247070313 1.000001907348633 C 2.046730041503906 1.000001907348633 1 2.345790863037109 1 4.000001907348633 L 1 26 C 1 27.65421104431152 2.046730041503906 29 3.333328247070313 29 L 46.66667175292969 29 C 47.95326995849609 29 49 27.65421104431152 49 26 L 49 4.000001907348633 C 49 2.345790863037109 47.95326995849609 1.000001907348633 46.66667175292969 1.000001907348633 L 3.333328247070313 1.000001907348633 M 3.333328247070313 1.9073486328125e-06 L 46.66667175292969 1.9073486328125e-06 C 48.50762176513672 1.9073486328125e-06 50 1.790861129760742 50 4.000001907348633 L 50 26 C 50 28.20914077758789 48.50762176513672 30 46.66667175292969 30 L 3.333328247070313 30 C 1.492378234863281 30 0 28.20914077758789 0 26 L 0 4.000001907348633 C 0 1.790861129760742 1.492378234863281 1.9073486328125e-06 3.333328247070313 1.9073486328125e-06 Z"/>
  </g>
  <text id="刪除" class="cls-3" transform="translate(17 21.5)"><tspan x="0" y="0">刪除</tspan></text>
  <g id="Mask_Group_46" data-name="Mask Group 46" class="cls-4" transform="translate(4 11)">
    <path id="x" class="cls-5" d="M6.636,6.636a.714.714,0,0,1,1.011,0l3.779,3.781,3.779-3.781a.715.715,0,0,1,1.011,1.011l-3.781,3.779,3.781,3.779a.715.715,0,0,1-1.011,1.011l-3.779-3.781L7.647,16.216a.715.715,0,1,1-1.011-1.011l3.781-3.779L6.636,7.647a.714.714,0,0,1,0-1.011Z" transform="translate(-6.426 -6.426)"/>
  </g>
</svg>
