<svg id="Group_350" data-name="Group 350" xmlns="http://www.w3.org/2000/svg" xmlns:xlink="http://www.w3.org/1999/xlink" width="70" height="30" viewBox="0 0 70 30">
  <defs>
    <style>
      .cls-1, .cls-3, .cls-5 {
        fill: #fff;
      }

      .cls-1 {
        stroke: #707070;
      }

      .cls-2 {
        fill: #343a40;
      }

      .cls-3 {
        font-size: 12px;
        font-family: SourceHanSansTW-Normal, Source Han Sans TW;
      }

      .cls-4 {
        clip-path: url(#clip-path);
      }

      .cls-5 {
        fill-rule: evenodd;
      }

      .cls-6, .cls-7 {
        stroke: none;
      }

      .cls-7 {
        fill: #343a40;
      }
    </style>
    <clipPath id="clip-path">
      <rect id="Rectangle_132" data-name="Rectangle 132" class="cls-1" width="10" height="10" transform="translate(950 420)"/>
    </clipPath>
  </defs>
  <g id="Path_142" data-name="Path 142" class="cls-2" transform="translate(0 0)">
    <path class="cls-6" d="M 65.33334350585938 29.5 L 4.666669845581055 29.5 C 2.369159936904907 29.5 0.5 27.92991065979004 0.5 26 L 0.5 4.000000953674316 C 0.5 2.070091009140015 2.369159936904907 0.5000009536743164 4.666669845581055 0.5000009536743164 L 65.33334350585938 0.5000009536743164 C 67.63083648681641 0.5000009536743164 69.5 2.070091009140015 69.5 4.000000953674316 L 69.5 26 C 69.5 27.92991065979004 67.63083648681641 29.5 65.33334350585938 29.5 Z"/>
    <path class="cls-7" d="M 4.666656494140625 1.000001907348633 C 2.644859313964844 1.000001907348633 1 2.345790863037109 1 4.000001907348633 L 1 26 C 1 27.65421104431152 2.644859313964844 29 4.666656494140625 29 L 65.33332824707031 29 C 67.35514068603516 29 69 27.65421104431152 69 26 L 69 4.000001907348633 C 69 2.345790863037109 67.35514068603516 1.000001907348633 65.33332824707031 1.000001907348633 L 4.666656494140625 1.000001907348633 M 4.666656494140625 1.9073486328125e-06 L 65.33332824707031 1.9073486328125e-06 C 67.91066741943359 1.9073486328125e-06 70 1.790861129760742 70 4.000001907348633 L 70 26 C 70 28.20914077758789 67.91066741943359 30 65.33332824707031 30 L 4.666656494140625 30 C 2.089340209960938 30 0 28.20914077758789 0 26 L 0 4.000001907348633 C 0 1.790861129760742 2.089340209960938 1.9073486328125e-06 4.666656494140625 1.9073486328125e-06 Z"/>
  </g>
  <text id="查詢專欄" class="cls-3" transform="translate(18 20.5)"><tspan x="0" y="0">查詢專欄</tspan></text>
  <g id="Mask_Group_49" data-name="Mask Group 49" class="cls-4" transform="translate(-945 -408)">
    <g id="box-arrow-right" transform="translate(950 420)">
      <path id="Path_164" data-name="Path 164" class="cls-5" d="M6.25,7.812a.312.312,0,0,1-.312.312h-5a.312.312,0,0,1-.312-.312V2.187a.312.312,0,0,1,.312-.312h5a.312.312,0,0,1,.312.312v1.25a.312.312,0,0,0,.625,0V2.187a.937.937,0,0,0-.937-.937h-5A.937.937,0,0,0,0,2.187V7.812a.937.937,0,0,0,.937.937h5a.937.937,0,0,0,.937-.937V6.562a.312.312,0,0,0-.625,0Z"/>
      <path id="Path_165" data-name="Path 165" class="cls-5" d="M9.908,5.221a.312.312,0,0,0,0-.442L8.033,2.9a.313.313,0,1,0-.442.442L8.933,4.687h-5.5a.312.312,0,1,0,0,.625h5.5L7.591,6.653a.313.313,0,0,0,.442.442Z"/>
    </g>
  </g>
</svg>
