<svg id="Group_343" data-name="Group 343" xmlns="http://www.w3.org/2000/svg" xmlns:xlink="http://www.w3.org/1999/xlink" width="50" height="30" viewBox="0 0 50 30">
  <defs>
    <style>
      .cls-1, .cls-3, .cls-5 {
        fill: #fff;
      }

      .cls-1 {
        stroke: #707070;
      }

      .cls-2 {
        fill: #007bff;
      }

      .cls-3 {
        font-size: 14px;
        font-family: SourceHanSansTW-Normal, Source Han Sans TW;
      }

      .cls-4 {
        clip-path: url(#clip-path);
      }

      .cls-6, .cls-7 {
        stroke: none;
      }

      .cls-7 {
        fill: #007bff;
      }
    </style>
    <clipPath id="clip-path">
      <rect id="Rectangle_126" data-name="Rectangle 126" class="cls-1" width="10" height="10"/>
    </clipPath>
  </defs>
  <g id="Path_142" data-name="Path 142" class="cls-2" transform="translate(0 0)">
    <path class="cls-6" d="M 46.66667175292969 29.5 L 3.333331823348999 29.5 C 1.771031856536865 29.5 0.5000019073486328 27.92991065979004 0.5000019073486328 26 L 0.5000019073486328 4.000000953674316 C 0.5000019073486328 2.070091009140015 1.771031856536865 0.5000009536743164 3.333331823348999 0.5000009536743164 L 46.66667175292969 0.5000009536743164 C 48.22897338867188 0.5000009536743164 49.5 2.070091009140015 49.5 4.000000953674316 L 49.5 26 C 49.5 27.92991065979004 48.22897338867188 29.5 46.66667175292969 29.5 Z"/>
    <path class="cls-7" d="M 3.333332061767578 1.000001907348633 C 2.046730041503906 1.000001907348633 1.000003814697266 2.345790863037109 1.000003814697266 4.000001907348633 L 1.000003814697266 26 C 1.000003814697266 27.65421104431152 2.046730041503906 29 3.333332061767578 29 L 46.66667175292969 29 C 47.95326995849609 29 49 27.65421104431152 49 26 L 49 4.000001907348633 C 49 2.345790863037109 47.95326995849609 1.000001907348633 46.66667175292969 1.000001907348633 L 3.333332061767578 1.000001907348633 M 3.333332061767578 1.9073486328125e-06 L 46.66667175292969 1.9073486328125e-06 C 48.50762176513672 1.9073486328125e-06 50 1.790861129760742 50 4.000001907348633 L 50 26 C 50 28.20914077758789 48.50762176513672 30 46.66667175292969 30 L 3.333332061767578 30 C 1.492382049560547 30 3.814697265625e-06 28.20914077758789 3.814697265625e-06 26 L 3.814697265625e-06 4.000001907348633 C 3.814697265625e-06 1.790861129760742 1.492382049560547 1.9073486328125e-06 3.333332061767578 1.9073486328125e-06 Z"/>
  </g>
  <text id="結案" class="cls-3" transform="translate(17.921 21)"><tspan x="0" y="0">結案</tspan></text>
  <g id="Mask_Group_40" data-name="Mask Group 40" class="cls-4" transform="translate(4.701 11.333)">
    <g id="check-square">
      <path id="Path_154" data-name="Path 154" class="cls-5" d="M8.75.625a.625.625,0,0,1,.625.625v7.5a.625.625,0,0,1-.625.625H1.25A.625.625,0,0,1,.625,8.75V1.25A.625.625,0,0,1,1.25.625ZM1.25,0A1.25,1.25,0,0,0,0,1.25v7.5A1.25,1.25,0,0,0,1.25,10h7.5A1.25,1.25,0,0,0,10,8.75V1.25A1.25,1.25,0,0,0,8.75,0Z"/>
      <path id="Path_155" data-name="Path 155" class="cls-5" d="M6.856,3.106a.469.469,0,1,1,.669.656l-2.5,3.119a.469.469,0,0,1-.675.013L2.7,5.24a.469.469,0,1,1,.662-.662L4.674,5.886,6.844,3.12l.012-.014Z"/>
    </g>
  </g>
</svg>
