<svg xmlns="http://www.w3.org/2000/svg" xmlns:xlink="http://www.w3.org/1999/xlink" width="10" height="10" viewBox="0 0 10 10">
  <defs>
    <clipPath id="clip-path">
      <rect id="Rectangle_126" data-name="Rectangle 126" width="10" height="10" transform="translate(785 474)" fill="#fff" stroke="#707070" stroke-width="1"/>
    </clipPath>
  </defs>
  <g id="Mask_Group_40" data-name="Mask Group 40" transform="translate(-785 -474)" clip-path="url(#clip-path)">
    <g id="check-square" transform="translate(785 474)">
      <path id="Path_154" data-name="Path 154" d="M8.75.625a.625.625,0,0,1,.625.625v7.5a.625.625,0,0,1-.625.625H1.25A.625.625,0,0,1,.625,8.75V1.25A.625.625,0,0,1,1.25.625ZM1.25,0A1.25,1.25,0,0,0,0,1.25v7.5A1.25,1.25,0,0,0,1.25,10h7.5A1.25,1.25,0,0,0,10,8.75V1.25A1.25,1.25,0,0,0,8.75,0Z" fill="#fff"/>
      <path id="Path_155" data-name="Path 155" d="M6.856,3.106a.469.469,0,1,1,.669.656l-2.5,3.119a.469.469,0,0,1-.675.013L2.7,5.24a.469.469,0,1,1,.662-.662L4.674,5.886,6.844,3.12l.012-.014Z" fill="#fff"/>
    </g>
  </g>
</svg>
